<?xml version="1.0" encoding="UTF-8"?>
<svg version="1.1" xmlns="http://www.w3.org/2000/svg" width="500" height="500">
<path d="M0 0 C3.10339282 3.85573047 3.17715915 5.78454002 3.125 10.6875 C3.11597656 11.78320312 3.10695313 12.87890625 3.09765625 14.0078125 C3.08025391 15.27238281 3.08025391 15.27238281 3.0625 16.5625 C3.99191406 16.55089844 4.92132813 16.53929687 5.87890625 16.52734375 C17.89938752 16.43960301 25.43452315 17.85585233 36.0625 23.5625 C36.0625 24.2225 36.0625 24.8825 36.0625 25.5625 C36.68125 25.871875 37.3 26.18125 37.9375 26.5 C39.3125 27.1875 40.6875 27.875 42.0625 28.5625 C42.0625 29.2225 42.0625 29.8825 42.0625 30.5625 C42.7225 30.5625 43.3825 30.5625 44.0625 30.5625 C45.46484375 32.46875 45.46484375 32.46875 47 35.0625 C47.75603516 36.31546875 47.75603516 36.31546875 48.52734375 37.59375 C53.36349814 46.94610963 53.49208335 54.98585353 53.45068359 65.28466797 C53.45475289 66.98389014 53.46009678 68.68310967 53.46661377 70.38232422 C53.48025269 74.9816152 53.47500234 79.58070355 53.46547651 84.17999792 C53.45785967 89.003966 53.46493137 93.8279172 53.46963501 98.65188599 C53.47508772 106.75379537 53.46791477 114.85562263 53.45361328 122.95751953 C53.43729874 132.30744738 53.44256855 141.65717883 53.4590925 151.00710189 C53.47273436 159.0498328 53.47461351 167.09250479 53.46677649 175.13524354 C53.46211338 179.93207205 53.46143728 184.72880846 53.47138596 189.52563095 C53.4800923 194.03848648 53.47396709 198.55109052 53.45670319 203.06391907 C53.45275738 204.714205 53.45383948 206.36451233 53.46049118 208.01478958 C53.51375682 222.5799029 51.38720051 236.26161927 40.8125 247.25 C38.0625 249.5625 38.0625 249.5625 36.0625 249.5625 C36.0625 250.2225 36.0625 250.8825 36.0625 251.5625 C26.18957909 259.25095685 13.95709639 261.67456685 1.69538879 261.70294189 C0.9752347 261.70591302 0.25508061 261.70888414 -0.48689634 261.7119453 C-2.88865573 261.7205841 -5.290365 261.72213644 -7.69213867 261.72363281 C-9.41899725 261.72826442 -11.1458548 261.73328954 -12.87271118 261.73867798 C-17.556829 261.75177144 -22.2409325 261.75824104 -26.92506576 261.76268864 C-29.85493075 261.76562446 -32.78479188 261.76973024 -35.71465492 261.77419281 C-44.89141451 261.78786006 -54.0681652 261.79753034 -63.24493426 261.8013947 C-73.81970517 261.80587287 -84.39434667 261.82341285 -94.96907824 261.8523953 C-103.15529333 261.87404867 -111.3414721 261.88410094 -119.5277155 261.88543582 C-124.41125523 261.88648128 -129.29467316 261.89233378 -134.1781826 261.91025543 C-138.77552625 261.92679929 -143.37265738 261.92886111 -147.97002029 261.92011642 C-149.65053313 261.91934941 -151.3310577 261.9236442 -153.01154137 261.93357468 C-169.30208891 262.02413915 -182.98878732 258.97776889 -195.9375 248.5625 C-195.9375 247.9025 -195.9375 247.2425 -195.9375 246.5625 C-196.5975 246.5625 -197.2575 246.5625 -197.9375 246.5625 C-205.26253466 237.30982464 -209.17348422 227.93900229 -209.20492554 216.02407837 C-209.20945665 215.30967697 -209.21398776 214.59527556 -209.21865618 213.85922563 C-209.23121676 211.48892786 -209.22968529 209.11886231 -209.22802734 206.74853516 C-209.23401775 205.03946134 -209.24082447 203.33039023 -209.24838257 201.62132263 C-209.26599586 196.99522483 -209.27073592 192.36920109 -209.27201414 187.74307299 C-209.27343874 184.84904625 -209.27771414 181.95503817 -209.28300858 179.06101608 C-209.30149211 168.95407675 -209.30968113 158.84719005 -209.30810547 148.74023438 C-209.30690394 139.33574618 -209.32801289 129.93148743 -209.3595928 120.52705729 C-209.385784 112.43762374 -209.3964716 104.34826502 -209.39519465 96.25878942 C-209.39468593 91.43396575 -209.40031934 86.60934621 -209.42155075 81.78456497 C-209.4409816 77.24540961 -209.44102463 72.70665216 -209.42651749 68.16748238 C-209.42443442 66.50751092 -209.42910019 64.84751422 -209.4412384 63.18758583 C-209.53152006 49.9796416 -207.62742483 39.92141731 -198.4375 29.8125 C-196.28476486 27.87503837 -194.59363467 26.64462894 -191.9375 25.5625 C-191.9375 24.9025 -191.9375 24.2425 -191.9375 23.5625 C-180.82342953 17.02481149 -171.73067022 16.38698395 -158.9375 16.5625 C-158.98970703 15.35013672 -158.98970703 15.35013672 -159.04296875 14.11328125 C-159.07003906 13.04464844 -159.09710938 11.97601563 -159.125 10.875 C-159.17720703 9.29138672 -159.17720703 9.29138672 -159.23046875 7.67578125 C-158.89813055 4.14413401 -158.05428496 2.37994571 -155.9375 -0.4375 C-151.2788446 -3.54327027 -146.39385205 -3.05603384 -140.9375 -2.4375 C-137.86384214 -0.62946596 -136.50730268 0.42289464 -134.9375 3.5625 C-134.9375 7.8525 -134.9375 12.1425 -134.9375 16.5625 C-97.6475 16.5625 -60.3575 16.5625 -21.9375 16.5625 C-21.9375 13.2625 -21.9375 9.9625 -21.9375 6.5625 C-20.88652385 2.53375809 -19.19305296 0.16694237 -15.9375 -2.4375 C-10.28880674 -4.4773059 -4.5612607 -3.7848759 0 0 Z " fill="#F5F6F6" transform="translate(327.9375,125.4375)"/>
<path d="M0 0 C85.8 0 171.6 0 260 0 C258.75405498 13.70539521 254.92955649 23.31941377 247.875 34.8125 C247.45549072 35.50045654 247.03598145 36.18841309 246.60375977 36.8972168 C244.38640819 40.36661684 242.75026096 42.35020709 239 44 C237.92497317 45.90511759 237.92497317 45.90511759 237 48 C235.4140625 49.88671875 235.4140625 49.88671875 233.625 51.6875 C233.03976562 52.28949219 232.45453125 52.89148438 231.8515625 53.51171875 C229.87391086 55.10135013 228.4785821 55.5905426 226 56 C226 56.66 226 57.32 226 58 C214.35752976 65.00247845 203.3340131 71.03626725 189.4119873 71.19186401 C188.76351916 71.20032982 188.11505101 71.20879563 187.44693232 71.21751797 C185.28170588 71.24450526 183.116473 71.26463443 180.95117188 71.28466797 C179.39518856 71.30244159 177.83920918 71.3205626 176.28323364 71.33900452 C171.17847039 71.39747773 166.07363222 71.44544605 160.96875 71.4921875 C159.20673114 71.50870714 157.4447123 71.5252286 155.68269348 71.54175186 C148.34805487 71.60967033 141.01339966 71.67467097 133.67867279 71.73234367 C123.19340598 71.81493056 112.70862584 71.91464087 102.22376204 72.03843391 C94.83764454 72.12423154 87.45150526 72.19033719 80.06507158 72.24207985 C75.66079694 72.27343983 71.25698639 72.31317423 66.85301208 72.37401962 C62.70301599 72.43091654 58.55351859 72.46318531 54.40316391 72.47743034 C52.88951013 72.48674318 51.37587789 72.50458006 49.86244583 72.53211021 C35.93043955 72.77637567 23.61339588 69.51132768 13 60 C13 59.34 13 58.68 13 58 C12.34 58 11.68 58 11 58 C-3.21400682 40.04546507 0 24.82198538 0 0 Z " fill="#2B88CD" transform="translate(119,314)"/>
<path d="M0 0 C3.10339282 3.85573047 3.17715915 5.78454002 3.125 10.6875 C3.11597656 11.78320312 3.10695313 12.87890625 3.09765625 14.0078125 C3.08025391 15.27238281 3.08025391 15.27238281 3.0625 16.5625 C3.99191406 16.55089844 4.92132813 16.53929687 5.87890625 16.52734375 C17.89938752 16.43960301 25.43452315 17.85585233 36.0625 23.5625 C36.0625 24.2225 36.0625 24.8825 36.0625 25.5625 C36.68125 25.871875 37.3 26.18125 37.9375 26.5 C39.3125 27.1875 40.6875 27.875 42.0625 28.5625 C42.0625 29.2225 42.0625 29.8825 42.0625 30.5625 C42.7225 30.5625 43.3825 30.5625 44.0625 30.5625 C45.46484375 32.46875 45.46484375 32.46875 47 35.0625 C47.75603516 36.31546875 47.75603516 36.31546875 48.52734375 37.59375 C54.86569462 49.85112065 53.0625 54.53240316 53.0625 70.5625 C-33.3975 70.5625 -119.8575 70.5625 -208.9375 70.5625 C-208.9375 41.3625 -208.9375 41.3625 -198.4375 29.8125 C-196.28476486 27.87503837 -194.59363467 26.64462894 -191.9375 25.5625 C-191.9375 24.9025 -191.9375 24.2425 -191.9375 23.5625 C-180.82342953 17.02481149 -171.73067022 16.38698395 -158.9375 16.5625 C-158.98970703 15.35013672 -158.98970703 15.35013672 -159.04296875 14.11328125 C-159.07003906 13.04464844 -159.09710938 11.97601563 -159.125 10.875 C-159.17720703 9.29138672 -159.17720703 9.29138672 -159.23046875 7.67578125 C-158.89813055 4.14413401 -158.05428496 2.37994571 -155.9375 -0.4375 C-151.2788446 -3.54327027 -146.39385205 -3.05603384 -140.9375 -2.4375 C-137.86384214 -0.62946596 -136.50730268 0.42289464 -134.9375 3.5625 C-134.9375 7.8525 -134.9375 12.1425 -134.9375 16.5625 C-97.6475 16.5625 -60.3575 16.5625 -21.9375 16.5625 C-21.9375 13.2625 -21.9375 9.9625 -21.9375 6.5625 C-20.88652385 2.53375809 -19.19305296 0.16694237 -15.9375 -2.4375 C-10.28880674 -4.4773059 -4.5612607 -3.7848759 0 0 Z " fill="#2B88CD" transform="translate(327.9375,125.4375)"/>
<path d="M0 0 C4.21875728 5.24148632 3.13275923 9.95813242 3.0625 16.5625 C7.6825 16.5625 12.3025 16.5625 17.0625 16.5625 C17.0625 16.8925 17.0625 17.2225 17.0625 17.5625 C12.4425 17.5625 7.8225 17.5625 3.0625 17.5625 C3.09730469 19.44195312 3.13210938 21.32140625 3.16796875 23.2578125 C3.1961114 25.73436605 3.22341105 28.21092928 3.25 30.6875 C3.27513672 31.925 3.30027344 33.1625 3.32617188 34.4375 C3.34067383 36.23574219 3.34067383 36.23574219 3.35546875 38.0703125 C3.37903442 39.71990967 3.37903442 39.71990967 3.40307617 41.40283203 C2.88889446 46.17311142 1.09945479 49.43666337 -2.125 52.9375 C-5.85985572 55.09541664 -8.7209628 55.26383073 -12.9375 54.5625 C-17.60044945 52.59369912 -18.1580135 51.1949775 -20.9375 46.5625 C-20.9375 36.9925 -20.9375 27.4225 -20.9375 17.5625 C-58.5575 17.5625 -96.1775 17.5625 -134.9375 17.5625 C-134.9375 26.8025 -134.9375 36.0425 -134.9375 45.5625 C-138.5625 52.8125 -138.5625 52.8125 -142.9375 54.5625 C-149.50443369 55.39639634 -149.50443369 55.39639634 -152.75 53.5078125 C-154.92878992 51.73754569 -156.6738437 50.08981261 -157.9375 47.5625 C-158.06953133 46.20129677 -158.14527099 44.83437501 -158.19042969 43.4675293 C-158.22005798 42.62292648 -158.24968628 41.77832367 -158.2802124 40.90812683 C-158.30633606 39.99356216 -158.33245972 39.0789975 -158.359375 38.13671875 C-158.38727112 37.19697708 -158.41516724 36.25723541 -158.44390869 35.28901672 C-158.50035851 33.29765321 -158.55396957 31.30620753 -158.60498047 29.31469727 C-158.68689912 26.27231619 -158.79048693 23.23114682 -158.89453125 20.18945312 C-158.94666016 18.25524418 -158.99748392 16.32099954 -159.046875 14.38671875 C-159.08109558 13.47822678 -159.11531616 12.5697348 -159.15057373 11.63371277 C-159.2473925 6.77527243 -159.19666607 3.4622314 -155.9375 -0.4375 C-151.2788446 -3.54327027 -146.39385205 -3.05603384 -140.9375 -2.4375 C-137.86384214 -0.62946596 -136.50730268 0.42289464 -134.9375 3.5625 C-134.9375 7.8525 -134.9375 12.1425 -134.9375 16.5625 C-97.6475 16.5625 -60.3575 16.5625 -21.9375 16.5625 C-21.9375 13.2625 -21.9375 9.9625 -21.9375 6.5625 C-20.88652385 2.53375809 -19.19305296 0.16694237 -15.9375 -2.4375 C-10.28880674 -4.4773059 -4.5612607 -3.7848759 0 0 Z " fill="#E9F1F6" transform="translate(327.9375,125.4375)"/>
<path d="M0 0 C0.33 0 0.66 0 1 0 C1.07646293 7.22242401 1.12877249 14.44474246 1.16479492 21.66748047 C1.17982224 24.12129619 1.2002498 26.57508533 1.22631836 29.02880859 C1.2629682 32.56875192 1.27978755 36.10833814 1.29296875 39.6484375 C1.30845261 40.73426117 1.32393646 41.82008484 1.33988953 42.93881226 C1.34259645 55.36673512 -2.456406 67.54990232 -11.25 76.6875 C-14 79 -14 79 -16 79 C-16 79.66 -16 80.32 -16 81 C-25.89476472 88.70546754 -38.15295137 91.12896954 -50.44113159 91.12025452 C-51.53300457 91.12153615 -51.53300457 91.12153615 -52.64693558 91.12284368 C-55.07438221 91.12448452 -57.501759 91.11900006 -59.92919922 91.11352539 C-61.6739044 91.11324319 -63.4186097 91.11340189 -65.16331482 91.1139679 C-69.89215798 91.11425459 -74.62097573 91.10837845 -79.34981298 91.10139394 C-84.29457819 91.09513919 -89.23934399 91.09455492 -94.18411255 91.09336853 C-103.5443585 91.09026148 -112.90459276 91.08205651 -122.26483357 91.07201904 C-132.92256762 91.06083849 -143.58030223 91.05534256 -154.23804069 91.05032361 C-176.15870031 91.03987338 -198.07934942 91.02228604 -220 91 C-220 90.34 -220 89.68 -220 89 C-218.8197322 88.99780016 -218.8197322 88.99780016 -217.61562061 88.99555588 C-198.42533466 88.95842282 -179.23522977 88.89932227 -160.04508686 88.81609726 C-150.76467429 88.77637314 -141.48434571 88.74394709 -132.20385742 88.72900391 C-124.11022788 88.71595292 -116.01678364 88.6889008 -107.92325848 88.64538693 C-103.64207081 88.62284927 -99.36111103 88.60708467 -95.07985878 88.60811615 C-91.04056958 88.60886735 -87.00178267 88.59073434 -82.9626236 88.55883217 C-81.48939243 88.5503946 -80.0161045 88.54854089 -78.54286003 88.55419731 C-66.10411522 88.59555065 -55.3890759 86.14869424 -44.375 80.3125 C-38.1702544 77.05675147 -38.1702544 77.05675147 -35 76 C-35 75.34 -35 74.68 -35 74 C-33.59485489 73.10893237 -32.18920859 72.21864668 -30.78125 71.33203125 C-27.98136683 69.23825897 -25.89327948 66.60623692 -23.65625 63.9375 C-22 62 -22 62 -19.4375 59.5625 C-3.83815814 43.16319189 -0.90222798 21.58224311 0 0 Z " fill="#B1C3D3" transform="translate(380,296)"/>
<path d="M0 0 C3.07365786 1.80803404 4.43019732 2.86039464 6 6 C6.08619865 7.42397948 6.1100453 8.85200661 6.10107422 10.27856445 C6.09711639 11.16320877 6.09315857 12.04785309 6.08908081 12.95930481 C6.04114025 17.00713467 5.99133266 21.05475105 5.92285156 25.10229492 C5.89103255 27.23692827 5.86981833 29.37174686 5.859375 31.5065918 C5.84413362 34.5846359 5.79673223 37.66071205 5.7421875 40.73828125 C5.74298309 41.69052078 5.74377869 42.64276031 5.74459839 43.62385559 C5.62608078 48.25713218 5.52146942 50.33693781 2.57861328 54.07885742 C-1.02988907 56.76729758 -3.33094337 57.39262518 -7.89453125 57.359375 C-11.61593453 56.72418186 -13.40312849 54.66020984 -16 52 C-17.12522922 49.74954155 -17.17030653 48.40583456 -17.25292969 45.9050293 C-17.28255798 45.06042648 -17.31218628 44.21582367 -17.3427124 43.34562683 C-17.36883606 42.43106216 -17.39495972 41.5164975 -17.421875 40.57421875 C-17.44977112 39.63447708 -17.47766724 38.69473541 -17.50640869 37.72651672 C-17.56285851 35.73515321 -17.61646957 33.74370753 -17.66748047 31.75219727 C-17.74939912 28.70981619 -17.85298693 25.66864682 -17.95703125 22.62695312 C-18.00916016 20.69274418 -18.05998392 18.75849954 -18.109375 16.82421875 C-18.14359558 15.91572678 -18.17781616 15.0072348 -18.21307373 14.07121277 C-18.3098925 9.21277243 -18.25916607 5.8997314 -15 2 C-10.3413446 -1.10577027 -5.45635205 -0.61853384 0 0 Z " fill="#F7F7F7" transform="translate(187,123)"/>
<path d="M0 0 C30.28574782 -0.02279429 60.57149521 -0.04050021 90.85724967 -0.05106533 C94.42973547 -0.05231609 98.00222126 -0.05361041 101.57470703 -0.05493164 C102.28594873 -0.05519395 102.99719042 -0.05545626 103.72998489 -0.05572652 C115.25845307 -0.06008225 126.78691628 -0.06796927 138.31538151 -0.0771528 C150.13758059 -0.08649203 161.95977706 -0.09205618 173.78197968 -0.09408849 C180.4252941 -0.09533956 187.06859926 -0.09848107 193.71191025 -0.10573006 C199.95802475 -0.11249076 206.20412327 -0.11461685 212.45024109 -0.11310768 C214.74890861 -0.11338399 217.04757663 -0.11538881 219.346241 -0.11920547 C222.47221085 -0.12414347 225.59811946 -0.12299786 228.72409058 -0.12025452 C229.64431059 -0.12316736 230.5645306 -0.1260802 231.51263607 -0.12908131 C237.77175758 -0.11412121 237.77175758 -0.11412121 240 1 C242.29924497 1.27024708 244.59801487 1.44497841 246.90625 1.62109375 C249 2 249 2 251 4 C164.87 4 78.74 4 -10 4 C-10 3.67 -10 3.34 -10 3 C-7.03 3 -4.06 3 -1 3 C-0.67 2.01 -0.34 1.02 0 0 Z " fill="#EAF2FC" transform="translate(129,310)"/>
<path d="M0 0 C3.52848824 3.6189623 4.29323504 6.59099978 4.5 11.5 C4.29323504 16.40900022 3.52848824 19.3810377 0 23 C-5.198981 25.99941212 -9.16101432 26.55609387 -15 26 C-19.72859143 24.27224544 -22.23580764 22.18127832 -25 18 C-25.4609375 14.7734375 -25.4609375 14.7734375 -25.375 11.375 C-25.35566406 9.68503906 -25.35566406 9.68503906 -25.3359375 7.9609375 C-25 5 -25 5 -23 2 C-22.34 2 -21.68 2 -21 2 C-20.79375 1.38125 -20.5875 0.7625 -20.375 0.125 C-19 -2 -19 -2 -16.25 -3.3125 C-10.23502529 -4.5848985 -5.34437789 -2.87012887 0 0 Z " fill="#FDC614" transform="translate(327,222)"/>
<path d="M0 0 C3.98300668 1.39014743 6.63306371 3.5860206 9.4375 6.75 C11.36118083 10.75125612 11.71412982 13.6455499 11 18 C9.28271412 22.69994029 7.13393334 25.20959499 3 28 C-1.95337361 29.65112454 -6.9639362 29.85967138 -11.8125 27.8125 C-15.23199885 24.97920096 -18.68019081 21.62138681 -19.23828125 17.046875 C-19.41794069 11.48688817 -18.82592714 8.3293386 -15 4 C-10.24921869 -0.19836488 -6.11421947 -1.04389113 0 0 Z " fill="#2C88CC" transform="translate(254,219)"/>
<path d="M0 0 C3.97688487 3.73586154 5.84650597 7.17869144 6.5 12.5 C5.768003 18.25140502 3.48167058 22.20882483 -0.9375 25.9375 C-5.89087361 27.58862454 -10.9014362 27.79717138 -15.75 25.75 C-19.16949885 22.91670096 -22.61769081 19.55888681 -23.17578125 14.984375 C-23.35509456 9.43510006 -22.75177422 6.26721668 -18.9375 1.9375 C-13.91601219 -2.62748892 -6.09062218 -2.202991 0 0 Z " fill="#2080C9" transform="translate(351.9375,270.0625)"/>
<path d="M0 0 C4.13157191 1.81141679 6.47007806 4.19656996 8.9375 7.9375 C10.54661767 12.57554504 10.5595375 15.5275329 8.8125 20.125 C5.93188886 24.69424526 2.25315298 27.62417422 -3 29 C-8.43180883 28.80247968 -11.83908739 27.49894924 -16 24 C-19.10282491 19.44919014 -19.77114432 15.35516887 -19 10 C-17.69352364 6.22573496 -16.36459778 4.33791989 -13.4375 1.625 C-8.8111424 -0.56200541 -5.03020087 -0.91530554 0 0 Z " fill="#0A4E90" transform="translate(161,322)"/>
<path d="M0 0 C4.40608743 2.16298837 7.1987497 4.39680479 9 9 C9.798648 14.2178336 9.77462131 18.53775004 6.75 23 C4.24534922 26.21584792 1.68867627 27.76035287 -2.3671875 28.3359375 C-8.09465733 28.42515043 -11.56447399 28.00279176 -16 24 C-19.41912498 20.12499169 -19.45805289 16.3324021 -19.28125 11.3671875 C-18.73218541 6.74589384 -16.80435364 4.72588012 -13.4375 1.6875 C-8.83016898 -0.57428068 -5.04444853 -0.81203318 0 0 Z " fill="#106AB7" transform="translate(255,269)"/>
<path d="M0 0 C4.24443042 2.54800998 7.418294 5.25488199 9 10 C9.39737931 15.26527581 8.79575927 18.50681546 6 23 C3.21601664 26.21898076 1.26070831 27.77985612 -3.0859375 28.203125 C-8.98296111 28.32388316 -12.06235398 27.3936375 -16.6875 23.625 C-19.81192961 19.75665858 -20.49747276 15.87523306 -20 11 C-16.48598138 1.43406042 -9.86955345 -2.24434761 0 0 Z " fill="#0F6BB8" transform="translate(302,269)"/>
<path d="M0 0 C3.04983368 2.52700505 5.41209283 5.26168566 7.1875 8.8125 C7.69671186 14.92304235 7.27602244 17.95047331 3.1875 22.8125 C0.880061 25.39140241 -0.69196718 26.64545239 -4.14453125 27.16015625 C-9.34404119 27.3394497 -13.55835212 27.05375553 -17.8125 23.8125 C-20.89454653 19.44947788 -22.6326309 15.20193165 -21.8125 9.8125 C-20.15151919 5.66004798 -18.23583045 2.70093507 -14.8125 -0.1875 C-9.85912639 -1.83862454 -4.8485638 -2.04717138 0 0 Z " fill="#0A4D90" transform="translate(303.8125,323.1875)"/>
<path d="M0 0 C3.79853672 1.7956719 5.52011124 3.29616315 7.875 6.75 C9.46868181 11.35396968 9.97077465 15.37995229 8.2734375 19.9609375 C6.20185551 23.95252231 4.22411365 26.47212911 0 28 C-5.12631904 28.61856037 -9.42816783 28.8841556 -14 26.3125 C-18.42941533 21.19098852 -19.3255603 18.01822337 -19.203125 11.3046875 C-19 9 -19 9 -18 6 C-17.34 6 -16.68 6 -16 6 C-15.7525 5.38125 -15.505 4.7625 -15.25 4.125 C-12.06698035 -1.2861334 -5.55403679 -0.70193198 0 0 Z " fill="#0A4D90" transform="translate(255,322)"/>
<path d="M0 0 C4.40617281 2.16303029 7.1644597 4.41114924 9 9 C9.71091959 13.66047288 9.51221747 17.65440388 7.3125 21.875 C4.8988414 25.13670081 3.78131552 26.60255731 0 28 C-5.04726882 28.67635093 -8.82620111 28.57622855 -13.4375 26.3125 C-16.79656012 23.28115306 -18.69355631 21.25860352 -19.31640625 16.66796875 C-19.58213652 10.95048191 -18.96847152 7.39749547 -15 3 C-10.63453818 -0.85187808 -5.54054055 -0.79911643 0 0 Z " fill="#0E6AB8" transform="translate(208,269)"/>
<path d="M0 0 C3.35906012 3.03134694 5.25605631 5.05389648 5.87890625 9.64453125 C6.14463652 15.36201809 5.53097152 18.91500453 1.5625 23.3125 C-2.151194 26.49566629 -5.50036659 26.79005892 -10.2265625 26.5859375 C-13.6368257 26.1641735 -15.66963404 25.37230722 -18.4375 23.3125 C-21.52165161 19.13304221 -23.22320925 14.55882695 -22.96484375 9.33984375 C-21.9262654 5.34708699 -19.35595465 2.15994603 -16.4375 -0.6875 C-10.80755027 -2.56414991 -5.34720492 -2.62499151 0 0 Z " fill="#0F6BB9" transform="translate(164.4375,270.6875)"/>
<path d="M0 0 C4.40114139 2.24261982 6.44866522 4.67477745 7.96484375 9.3125 C8.74492643 15.35814079 7.72889526 18.56696341 4.44921875 23.6484375 C2.13148076 26.24674377 0.02542545 27.16198841 -3.40234375 27.6484375 C-9.12981358 27.73765043 -12.59963024 27.31529176 -17.03515625 23.3125 C-20.38736213 19.51333334 -20.60304611 15.71181035 -20.45703125 10.8203125 C-19.78984516 6.85426183 -17.96724278 4.02853805 -15.03515625 1.3125 C-10.37732801 -1.53767005 -5.15176646 -1.74032802 0 0 Z " fill="#0A4D90" transform="translate(209.03515625,322.6875)"/>
<path d="M0 0 C3.875 2.625 3.875 2.625 5 6 C5.39737931 11.26527581 4.79575927 14.50681546 2 19 C-0.78398336 22.21898076 -2.73929169 23.77985612 -7.0859375 24.203125 C-12.98296111 24.32388316 -16.06235398 23.3936375 -20.6875 19.625 C-23.81635946 15.751174 -24.43446971 11.88778425 -24 7 C-23.34 6.34 -22.68 5.68 -22 5 C-21.98582031 5.58007812 -21.97164063 6.16015625 -21.95703125 6.7578125 C-21.58336611 12.87784147 -20.39479412 15.70984384 -16 20 C-12.11118296 22.5925447 -9.90659331 22.23219916 -5.39453125 21.6640625 C-2.68900188 21.11663332 -2.68900188 21.11663332 -0.25 18.375 C1.33361796 14.09923151 0.5571711 12.20436196 -1 8 C-1 6.68 -1 5.36 -1 4 C-0.34 3.67 0.32 3.34 1 3 C0.67 2.01 0.34 1.02 0 0 Z " fill="#1B6BAE" transform="translate(306,273)"/>
<path d="M0 0 C0 0.66 0 1.32 0 2 C-0.62648438 1.97679687 -1.25296875 1.95359375 -1.8984375 1.9296875 C-2.71570313 1.91164063 -3.53296875 1.89359375 -4.375 1.875 C-5.59316406 1.84019531 -5.59316406 1.84019531 -6.8359375 1.8046875 C-9.21342243 1.78629949 -9.21342243 1.78629949 -11 4 C-11.99 4 -12.98 4 -14 4 C-13.67 4.99 -13.34 5.98 -13 7 C-14.98 7.99 -14.98 7.99 -17 9 C-16.89832038 16.27779447 -16.89832038 16.27779447 -13.625 22.5625 C-10.01469618 25.91492497 -7.55547221 26.12409704 -2.8125 26.0625 C-1.91144531 26.05347656 -1.01039063 26.04445313 -0.08203125 26.03515625 C0.94857422 26.01775391 0.94857422 26.01775391 2 26 C2.33 24.68 2.66 23.36 3 22 C3.99 22 4.98 22 6 22 C6.33 19.36 6.66 16.72 7 14 C7.99 14.33 8.98 14.66 10 15 C8.81603772 20.48927968 7.46844653 23.29445897 3 27 C-1.95337361 28.65112454 -6.9639362 28.85967138 -11.8125 26.8125 C-15.23199885 23.97920096 -18.68019081 20.62138681 -19.23828125 16.046875 C-19.41759456 10.49760006 -18.81427422 7.32971668 -15 3 C-10.53657144 -0.93831932 -5.62668269 -0.29499113 0 0 Z " fill="#367EB8" transform="translate(348,269)"/>
<path d="M0 0 C0.66 0.33 1.32 0.66 2 1 C0 3 -2 5 -4 7 C-4.23363881 8.84891946 -4.41303635 10.70488031 -4.5625 12.5625 C-4.64628906 13.57441406 -4.73007813 14.58632813 -4.81640625 15.62890625 C-4.87699219 16.41136719 -4.93757812 17.19382812 -5 18 C-4.01 18 -3.02 18 -2 18 C-1.67 18.66 -1.34 19.32 -1 20 C-0.01 20 0.98 20 2 20 C2 21.65 2 23.3 2 25 C4.64 25.33 7.28 25.66 10 26 C10 26.33 10 26.66 10 27 C3.93707386 27.41813284 0.80292012 27.13274522 -4 23 C-7.3858741 19.16267602 -7.50625142 15.36911014 -7.359375 10.44140625 C-6.83198846 6.85861727 -5.3569924 4.69370559 -3 2 C-2.01 1.34 -1.02 0.68 0 0 Z " fill="#2165A5" transform="translate(196,270)"/>
<path d="M0 0 C0.33 2.31 0.66 4.62 1 7 C-5.93 7 -12.86 7 -20 7 C-20 6.34 -20 5.68 -20 5 C-18.845 4.9175 -17.69 4.835 -16.5 4.75 C-12.40749353 4.26383345 -9.39977808 2.89532571 -5.859375 0.83984375 C-4 0 -4 0 0 0 Z " fill="#C9CDD7" transform="translate(336,380)"/>
<path d="M0 0 C5.01319327 -0.35666988 8.85303903 -0.56305357 13.4375 1.6875 C17.45158067 5.30996304 19.15272551 7.96428473 19.4375 13.375 C19.30033675 18.19185049 17.68179493 21.0611137 15 25 C14.01 25 13.02 25 12 25 C12.66 24.67 13.32 24.34 14 24 C14 23.01 14 22.02 14 21 C14.66 20.67 15.32 20.34 16 20 C16.4683265 17.41394668 16.4683265 17.41394668 16.625 14.4375 C16.69976562 13.42558594 16.77453125 12.41367187 16.8515625 11.37109375 C16.90054688 10.58863281 16.94953125 9.80617188 17 9 C16.01 9 15.02 9 14 9 C13.67 9.66 13.34 10.32 13 11 C12.71125 9.72125 12.4225 8.4425 12.125 7.125 C11.4244347 4.86954633 11.4244347 4.86954633 10 3 C6.72158956 1.68018903 3.51051244 1.26345309 0 1 C0 0.67 0 0.34 0 0 Z " fill="#236AA9" transform="translate(198,269)"/>
<path d="M0 0 C0.66 0 1.32 0 2 0 C2.01458252 0.78125244 2.02916504 1.56250488 2.04418945 2.36743164 C2.11900498 5.93293368 2.21555633 9.49753377 2.3125 13.0625 C2.33505859 14.29162109 2.35761719 15.52074219 2.38085938 16.78710938 C2.57314971 23.27253798 2.90523516 28.26394487 6 34 C6.33 34.99 6.66 35.98 7 37 C3.12098058 35.52864781 1.78879305 33.70118004 0 30 C-0.34057617 26.6784668 -0.34057617 26.6784668 -0.29296875 22.94921875 C-0.28872391 22.29041214 -0.28447906 21.63160553 -0.28010559 20.95283508 C-0.26341196 18.86396115 -0.22578058 16.77607861 -0.1875 14.6875 C-0.17244097 13.26498797 -0.15875469 11.8424607 -0.14648438 10.41992188 C-0.11354003 6.94629649 -0.06182408 3.47324513 0 0 Z " fill="#D6F1FE" transform="translate(307,142)"/>
<path d="M0 0 C1.26553205 4.58755368 1.2876651 7.73662414 -1 12 C-2.97485205 13.3703055 -4.97386717 14.70672372 -7 16 C-7.33 16.99 -7.66 17.98 -8 19 C-7.34 19.33 -6.68 19.66 -6 20 C-8.64877696 21.41898766 -11.08014819 22.31911019 -14 23 C-13.55269531 22.29875 -13.10539062 21.5975 -12.64453125 20.875 C-10.76043871 17.91830041 -8.87949697 14.95962282 -7 12 C-6.50242187 11.21753906 -6.00484375 10.43507813 -5.4921875 9.62890625 C-5.06164062 8.94699219 -4.63109375 8.26507813 -4.1875 7.5625 C-3.62095703 6.66724609 -3.62095703 6.66724609 -3.04296875 5.75390625 C-1.92792783 3.87879999 -0.95287207 1.96179544 0 0 Z " fill="#B4C7DA" transform="translate(373,336)"/>
<path d="M0 0 C1.2375 0.495 1.2375 0.495 2.5 1 C9.19895548 2.91398728 14.55335938 2.14888021 21 0 C20.34 1.65 19.68 3.3 19 5 C17.68 5 16.36 5 15 5 C14.34 6.32 13.68 7.64 13 9 C12.67 8.34 12.34 7.68 12 7 C10.68 7 9.36 7 8 7 C8 6.01 8 5.02 8 4 C5.69 3.67 3.38 3.34 1 3 C0.67 2.01 0.34 1.02 0 0 Z " fill="#FBF2D4" transform="translate(306,245)"/>
<path d="M0 0 C0 3 0 3 -1.8125 5 C-2.534375 5.66 -3.25625 6.32 -4 7 C-4.53625 7.5775 -5.0725 8.155 -5.625 8.75 C-7 10 -7 10 -9 10 C-9.66 11.98 -10.32 13.96 -11 16 C-14.76687864 16 -15.91190305 15.76462683 -19 14 C-17.71186658 13.16121545 -16.41936744 12.32913217 -15.125 11.5 C-14.40570313 11.0359375 -13.68640625 10.571875 -12.9453125 10.09375 C-11 9 -11 9 -9 9 C-9 8.34 -9 7.68 -9 7 C-7.02053408 5.63636792 -5.0180755 4.30581356 -3 3 C-1.20605554 1.37648891 -1.20605554 1.37648891 0 0 Z " fill="#B7C6D6" transform="translate(354,363)"/>
<path d="M0 0 C0.66 0.33 1.32 0.66 2 1 C1.70179167 4.57849992 1.25754642 5.76226484 -1.4375 8.25 C-4.76134013 10.5199396 -6.46318903 11.15487019 -10.4375 11.1875 C-11.61119141 11.20876953 -11.61119141 11.20876953 -12.80859375 11.23046875 C-15 11 -15 11 -18 9 C-16.35 9 -14.7 9 -13 9 C-13 8.01 -13 7.02 -13 6 C-11.68 6 -10.36 6 -9 6 C-9 6.66 -9 7.32 -9 8 C-8.34 8.33 -7.68 8.66 -7 9 C-7 8.34 -7 7.68 -7 7 C-5.35 7 -3.7 7 -2 7 C-2 6.01 -2 5.02 -2 4 C-1.34 4 -0.68 4 0 4 C-0.33 3.01 -0.66 2.02 -1 1 C-0.67 0.67 -0.34 0.34 0 0 Z " fill="#266DAD" transform="translate(167,286)"/>
<path d="M0 0 C3.99924698 1.99962349 6.47255894 3.72316502 8 8 C7.01 8.33 6.02 8.66 5 9 C4.67 7.35 4.34 5.7 4 4 C3.01 4 2.02 4 1 4 C1 3.34 1 2.68 1 2 C-6.82339507 1.46405703 -6.82339507 1.46405703 -14 4 C-14.3721042 5.32303717 -14.70630173 6.65737935 -15 8 C-17.0625 9.25 -17.0625 9.25 -19 10 C-17.64717831 5.57258356 -15.76701112 3.63690779 -12 1 C-8.28986322 -0.85506839 -4.04907177 -0.45334699 0 0 Z " fill="#2766A3" transform="translate(255,269)"/>
<path d="M0 0 C0.7425 0.78375 1.485 1.5675 2.25 2.375 C6.75886383 6.67891548 9.74873596 7.2666319 15.8046875 7.13671875 C18.2714303 6.98309598 20.60642714 6.61769622 23 6 C22.67 6.99 22.34 7.98 22 9 C13.585 9.495 13.585 9.495 5 10 C5 9.01 5 8.02 5 7 C2.03 6.505 2.03 6.505 -1 6 C-0.67 4.02 -0.34 2.04 0 0 Z " fill="#D8EFFA" transform="translate(236,240)"/>
<path d="M0 0 C0.33 0 0.66 0 1 0 C1.12397147 4.46564301 1.21450992 8.93036439 1.2746582 13.3972168 C1.29974109 14.91529801 1.3338166 16.43325918 1.37719727 17.95092773 C1.43813293 20.13815965 1.46626895 22.32379039 1.48828125 24.51171875 C1.51446533 25.82615967 1.54064941 27.14060059 1.56762695 28.49487305 C0.86015316 32.86356173 -0.58832697 34.2816865 -4 37 C-6.3125 37.8125 -6.3125 37.8125 -8 38 C-8 37.34 -8 36.68 -8 36 C-6.515 35.505 -6.515 35.505 -5 35 C-1.46207255 30.6720265 -0.48871898 27.61262227 -0.390625 22.0703125 C-0.35839844 20.78125 -0.32617188 19.4921875 -0.29296875 18.1640625 C-0.2782277 16.81771285 -0.26391 15.4713585 -0.25 14.125 C-0.22181288 12.75517097 -0.19188163 11.38537665 -0.16015625 10.015625 C-0.08962243 6.67702398 -0.03684015 3.33911485 0 0 Z " fill="#E2F8FE" transform="translate(191,142)"/>
<path d="M0 0 C0.99 0.33 1.98 0.66 3 1 C2.01 2.1446875 2.01 2.1446875 1 3.3125 C-2.05847901 7.7817563 -1.33250667 12.80920149 -1 18 C-1.66 18 -2.32 18 -3 18 C-3.66 14.7 -4.32 11.4 -5 8 C-5.33 8 -5.66 8 -6 8 C-6 6.02 -6 4.04 -6 2 C-3.03 2.495 -3.03 2.495 0 3 C0 2.01 0 1.02 0 0 Z " fill="#E0F1F9" transform="translate(144,271)"/>
<path d="M0 0 C0.33 0.66 0.66 1.32 1 2 C-1.97 1.67 -4.94 1.34 -8 1 C-8.33 0.01 -8.66 -0.98 -9 -2 C-12.86648272 -0.95902388 -16.49461443 0.03698408 -20 2 C-20 1.01 -20 0.02 -20 -1 C-12.33187627 -4.83406186 -7.55348047 -3.7026865 0 0 Z " fill="#F3C835" transform="translate(327,222)"/>
<path d="M0 0 C0.33 0 0.66 0 1 0 C1.01417969 0.58007812 1.02835937 1.16015625 1.04296875 1.7578125 C1.41663389 7.87784147 2.60520588 10.70984384 7 15 C7.99 15.66 8.98 16.32 10 17 C9.67 17.66 9.34 18.32 9 19 C3.78915464 16.04249317 0.77411268 13.86821887 -1 8 C-1.31578947 2.63157895 -1.31578947 2.63157895 0 0 Z " fill="#3372AB" transform="translate(283,278)"/>
<path d="M0 0 C2.05078125 0.03255208 4.1015625 0.06510417 6.15234375 0.09765625 C3.61871307 4.32037406 1.5861405 6.88075787 -2.84765625 9.09765625 C-3.17765625 8.10765625 -3.50765625 7.11765625 -3.84765625 6.09765625 C-3.18765625 5.10765625 -2.52765625 4.11765625 -1.84765625 3.09765625 C-3.49765625 3.09765625 -5.14765625 3.09765625 -6.84765625 3.09765625 C-6.20828125 2.78828125 -5.56890625 2.47890625 -4.91015625 2.16015625 C-0.79887576 0.04222388 -0.79887576 0.04222388 0 0 Z " fill="#4998D3" transform="translate(149.84765625,142.90234375)"/>
<path d="M0 0 C0.99 0.33 1.98 0.66 3 1 C2.55527344 1.44988281 2.11054688 1.89976562 1.65234375 2.36328125 C-1.1190618 5.5134666 -2.92273117 7.68986413 -3.17578125 11.98046875 C-2.90560889 14.69271858 -2.54007311 17.32909299 -2 20 C-4.81442477 17.18557523 -4.98063807 15.19361934 -5.375 11.25 C-5.35658013 6.276636 -3.11155023 3.73386027 0 0 Z " fill="#2769A7" transform="translate(147,271)"/>
<path d="M0 0 C0.99 0.495 0.99 0.495 2 1 C2 12 2 23 2 34 C0 32 0 32 -0.22705078 28.83544922 C-0.22673389 27.49182037 -0.21542181 26.1481659 -0.1953125 24.8046875 C-0.1924826 24.09724396 -0.18965271 23.38980042 -0.18673706 22.66091919 C-0.17553137 20.3987749 -0.15042679 18.13702485 -0.125 15.875 C-0.11497067 14.34245363 -0.10584474 12.80990106 -0.09765625 11.27734375 C-0.07559086 7.51807699 -0.04105896 3.75910536 0 0 Z " fill="#E7FBFE" transform="translate(170,141)"/>
<path d="M0 0 C0.33 0.66 0.66 1.32 1 2 C0.69578125 2.59554687 0.3915625 3.19109375 0.078125 3.8046875 C-1.20261762 6.41257645 -1.26725899 8.23411884 -1.25 11.125 C-1.25515625 11.99382812 -1.2603125 12.86265625 -1.265625 13.7578125 C-1.2106341 16.20203887 -1.2106341 16.20203887 1 18 C0.67 18.99 0.34 19.98 0 21 C-3.50132769 16.73275687 -4.63143536 13.73659567 -4.40625 8.19140625 C-3.76315668 4.72241248 -2.22052995 2.70627088 0 0 Z " fill="#498CC0" transform="translate(239,223)"/>
<path d="M0 0 C0 0.66 0 1.32 0 2 C-0.71027344 2.27714844 -1.42054688 2.55429687 -2.15234375 2.83984375 C-3.53099609 3.38318359 -3.53099609 3.38318359 -4.9375 3.9375 C-5.85402344 4.29714844 -6.77054687 4.65679687 -7.71484375 5.02734375 C-9.92418533 5.7996218 -9.92418533 5.7996218 -11 7 C-13.18292774 7.23481693 -15.37203174 7.41363323 -17.5625 7.5625 C-18.76003906 7.64628906 -19.95757812 7.73007812 -21.19140625 7.81640625 C-22.11824219 7.87699219 -23.04507812 7.93757813 -24 8 C-20.6407372 6.16020815 -17.22917349 5.0851658 -13.5625 4 C-10.38529709 3.05751571 -7.28813977 2.11638745 -4.21484375 0.875 C-2 0 -2 0 0 0 Z " fill="#A8C7E0" transform="translate(335,378)"/>
<path d="M0 0 C0.99 0.66 1.98 1.32 3 2 C3 2.66 3 3.32 3 4 C3.66 4 4.32 4 5 4 C7.24828052 8.49656104 7.16682272 12.07872966 7 17 C6.34 17.33 5.68 17.66 5 18 C4.96132812 17.12988281 4.96132812 17.12988281 4.921875 16.2421875 C4.44753981 9.70929836 2.72088137 5.72088137 -2 1 C-1.34 0.67 -0.68 0.34 0 0 Z " fill="#D6EBFA" transform="translate(212,269)"/>
<path d="M0 0 C1.29474635 3.88423904 0.63372371 5.28699157 -1 9 C-3.5 11.875 -3.5 11.875 -6 14 C-6.66 14 -7.32 14 -8 14 C-8.33 14.66 -8.66 15.32 -9 16 C-8.38722388 13.03824877 -7.74627478 11.61941217 -6 9 C-5.34 9 -4.68 9 -4 9 C-3.71125 8.071875 -3.4225 7.14375 -3.125 6.1875 C-2 3 -2 3 0 0 Z " fill="#3A8AC5" transform="translate(194,168)"/>
<path d="M0 0 C0.33 1.32 0.66 2.64 1 4 C0.34 4 -0.32 4 -1 4 C-0.85866501 5.77119803 -0.71176792 7.54195287 -0.5625 9.3125 C-0.48128906 10.29863281 -0.40007812 11.28476563 -0.31640625 12.30078125 C-0.08187441 15.09375599 -0.08187441 15.09375599 1 18 C1.99 18.33 2.98 18.66 4 19 C4 19.66 4 20.32 4 21 C4.99 21.33 5.98 21.66 7 22 C6.34 22.33 5.68 22.66 5 23 C2.09197539 20.78071806 0.04687238 19.07030857 -2 16 C-2.265625 12.96875 -2.265625 12.96875 -2.25 9.5 C-2.25773437 7.78296875 -2.25773437 7.78296875 -2.265625 6.03125 C-2 3 -2 3 0 0 Z " fill="#EFC842" transform="translate(304,224)"/>
<path d="M0 0 C0.66 0.33 1.32 0.66 2 1 C2 6.33333333 2 11.66666667 2 17 C1.34 16.67 0.68 16.34 0 16 C0 14.35 0 12.7 0 11 C-0.66 11 -1.32 11 -2 11 C-2.28571429 3.57142857 -2.28571429 3.57142857 0 0 Z " fill="#FBF2C7" transform="translate(301,226)"/>
<path d="M0 0 C1.32 0 2.64 0 4 0 C4 0.66 4 1.32 4 2 C4.66 2 5.32 2 6 2 C7.359375 3.609375 7.359375 3.609375 8.75 5.75 C9.45382812 6.79414063 9.45382812 6.79414063 10.171875 7.859375 C11 10 11 10 10.140625 12.265625 C9.76421875 12.83796875 9.3878125 13.4103125 9 14 C8.79375 12.906875 8.5875 11.81375 8.375 10.6875 C7.37086779 6.77050107 7.37086779 6.77050107 3.9375 5.3125 C2.968125 4.879375 1.99875 4.44625 1 4 C0.125 1.8125 0.125 1.8125 0 0 Z " fill="#64A1CB" transform="translate(366,154)"/>
<path d="M0 0 C0.99 0 1.98 0 3 0 C3 0.99 3 1.98 3 3 C3.66 3 4.32 3 5 3 C5 3.99 5 4.98 5 6 C9.32564205 7.58255197 13.428721 8.45144652 18 9 C18 9.33 18 9.66 18 10 C13.32120251 10.3743038 9.92219989 10.44402217 5.625 8.375 C2.7714691 5.79323395 1.44820132 3.54004768 0 0 Z " fill="#2668A6" transform="translate(236,287)"/>
<path d="M0 0 C1.06347656 -0.00515625 2.12695312 -0.0103125 3.22265625 -0.015625 C5.9375 0.25 5.9375 0.25 7.9375 2.25 C4.28492249 3.46752584 1.22547078 3.27957396 -2.58984375 3.1875 C-4.91976329 3.24639212 -6.83703018 3.58907161 -9.0625 4.25 C-9.0625 3.59 -9.0625 2.93 -9.0625 2.25 C-5.58864567 -0.06590289 -4.09819994 -0.01991835 0 0 Z " fill="#E0F3FC" transform="translate(203.0625,266.75)"/>
<path d="M0 0 C0.66 0 1.32 0 2 0 C3.15736548 5.59202333 3.7335096 9.65470967 0.5625 14.625 C-0.26682829 15.76843355 -1.11274427 16.90090812 -2 18 C-2.99 17.67 -3.98 17.34 -5 17 C-4.360625 16.236875 -3.72125 15.47375 -3.0625 14.6875 C-0.32808211 11.12447062 0.12573344 8.67560729 0.0625 4.3125 C0.05347656 3.50425781 0.04445313 2.69601563 0.03515625 1.86328125 C0.02355469 1.24839844 0.01195312 0.63351563 0 0 Z " fill="#DDF4FC" transform="translate(264,228)"/>
<path d="M0 0 C0.66 0 1.32 0 2 0 C2.36340286 1.76896102 2.71540883 3.54026626 3.0625 5.3125 C3.25972656 6.29863281 3.45695313 7.28476562 3.66015625 8.30078125 C4 11 4 11 3 14 C2.34 14 1.68 14 1 14 C1 14.66 1 15.32 1 16 C0.34 15.67 -0.32 15.34 -1 15 C-0.67 14.34 -0.34 13.68 0 13 C0.07092842 10.7927077 0.08415025 8.58332548 0.0625 6.375 C0.05347656 5.18648438 0.04445312 3.99796875 0.03515625 2.7734375 C0.02355469 1.85820312 0.01195312 0.94296875 0 0 Z " fill="#CFE5F2" transform="translate(169,275)"/>
<path d="M0 0 C4.29 0.33 8.58 0.66 13 1 C12.67 1.99 12.34 2.98 12 4 C7.71 4 3.42 4 -1 4 C-0.67 2.68 -0.34 1.36 0 0 Z " fill="#D1ECFB" transform="translate(337,266)"/>
<path d="M0 0 C4.71190102 -0.37695208 8.07370593 -0.46314703 12.375 1.6875 C14.96241816 3.96689219 16.46597317 5.93194634 18 9 C17.01 9.495 17.01 9.495 16 10 C15.38125 9.01 14.7625 8.02 14.125 7 C13.42375 6.01 12.7225 5.02 12 4 C11.34 4 10.68 4 10 4 C10 3.34 10 2.68 10 2 C8.3603125 2.061875 8.3603125 2.061875 6.6875 2.125 C3 2 3 2 0 0 Z " fill="#2969A7" transform="translate(152,269)"/>
<path d="M0 0 C0.33 0 0.66 0 1 0 C1.28971178 5.60109448 1.15976306 9.14750673 -2 14 C-4.1875 15.875 -4.1875 15.875 -6 17 C-4 13 -4 13 -2.9375 11.25 C-1.99864301 8.99674322 -1.71258891 7.2238262 -1.4375 4.8125 C-1 1 -1 1 0 0 Z " fill="#4C8EC0" transform="translate(264,229)"/>
<path d="M0 0 C0.6875 1.8125 0.6875 1.8125 1 4 C-0.84159673 6.48615558 -2.00470711 7.00156904 -5 8 C-6.66458673 8.09308544 -8.33281997 8.12996185 -10 8.125 C-11.299375 8.12886719 -11.299375 8.12886719 -12.625 8.1328125 C-15 8 -15 8 -18 7 C-17.67 6.34 -17.34 5.68 -17 5 C-16.01 5.33 -15.02 5.66 -14 6 C-8.18170294 6.53575573 -8.18170294 6.53575573 -3.0625 4.125 C-0.96116416 2.17402388 -0.96116416 2.17402388 0 0 Z " fill="#488ABB" transform="translate(329,173)"/>
<path d="M0 0 C2.41696872 -0.05411124 4.83271787 -0.09372278 7.25 -0.125 C7.93191406 -0.14175781 8.61382812 -0.15851563 9.31640625 -0.17578125 C13.0608235 -0.21213482 15.82352727 -0.07944349 19 2 C18.67 2.99 18.34 3.98 18 5 C17.38125 4.505 16.7625 4.01 16.125 3.5 C11.00330642 1.04158708 5.35872991 1.2137567 0 3 C0 2.01 0 1.02 0 0 Z " fill="#BFDEF3" transform="translate(242,268)"/>
<path d="M0 0 C2.475 0.495 2.475 0.495 5 1 C5 2.65 5 4.3 5 6 C7.64 6.33 10.28 6.66 13 7 C13 7.33 13 7.66 13 8 C5.5027933 8.36871508 5.5027933 8.36871508 3.125 6.625 C2.75375 6.08875 2.3825 5.5525 2 5 C1.34 4.34 0.68 3.68 0 3 C0 2.01 0 1.02 0 0 Z " fill="#1767AB" transform="translate(193,289)"/>
<path d="M0 0 C1.5625 1.1875 1.5625 1.1875 3 3 C2.6875 5.6875 2.6875 5.6875 2 8 C0 7 -2 6 -4 5 C-3.67 4.34 -3.34 3.68 -3 3 C-2.34 3.33 -1.68 3.66 -1 4 C-0.67 2.68 -0.34 1.36 0 0 Z " fill="#4896D4" transform="translate(136,369)"/>
<path d="M0 0 C1.95766281 -0.08082094 3.91626728 -0.13910778 5.875 -0.1875 C7.51082031 -0.23970703 7.51082031 -0.23970703 9.1796875 -0.29296875 C10.11039062 -0.19628906 11.04109375 -0.09960938 12 0 C12.66 0.99 13.32 1.98 14 3 C13.00419922 2.87431641 13.00419922 2.87431641 11.98828125 2.74609375 C5.45279152 1.94574958 5.45279152 1.94574958 -1 3 C-0.67 2.01 -0.34 1.02 0 0 Z " fill="#FDEFBD" transform="translate(310,217)"/>
<path d="M0 0 C1.41805831 0.28482368 2.83440379 0.57818144 4.25 0.875 C5.03890625 1.03742188 5.8278125 1.19984375 6.640625 1.3671875 C8.96831144 1.99150075 10.89031952 2.84838542 13 4 C9.57056481 5.18771723 7.62215325 4.80226223 4.25 3.5625 C3.45078125 3.27503906 2.6515625 2.98757813 1.828125 2.69140625 C1.22484375 2.46324219 0.6215625 2.23507812 0 2 C0 1.34 0 0.68 0 0 Z " fill="#609ECD" transform="translate(146,381)"/>
<path d="M0 0 C0 3 0 3 -1.8125 5 C-2.534375 5.66 -3.25625 6.32 -4 7 C-4.7115625 7.8353125 -4.7115625 7.8353125 -5.4375 8.6875 C-7.50626244 10.42526045 -9.36159497 10.64345878 -12 11 C-11.67 10.34 -11.34 9.68 -11 9 C-10.34 9 -9.68 9 -9 9 C-9 8.34 -9 7.68 -9 7 C-7.02053408 5.63636792 -5.0180755 4.30581356 -3 3 C-1.20605554 1.37648891 -1.20605554 1.37648891 0 0 Z " fill="#ABC7E0" transform="translate(354,363)"/>
<path d="M0 0 C1.32 0 2.64 0 4 0 C4.33 1.65 4.66 3.3 5 5 C-1.625 5.25 -1.625 5.25 -5 3 C-3.35 3 -1.7 3 0 3 C0 2.01 0 1.02 0 0 Z " fill="#1867AC" transform="translate(154,292)"/>
<path d="M0 0 C0.99 0 1.98 0 3 0 C1.70989008 2.87793751 0.42638194 4.96183917 -2 7 C-4.75078884 7.91692961 -6.35948913 8.10886083 -9.1875 8.0625 C-11.0746875 8.0315625 -11.0746875 8.0315625 -13 8 C-13 7.67 -13 7.34 -13 7 C-11.96939453 6.87044922 -11.96939453 6.87044922 -10.91796875 6.73828125 C-5.15883183 6.06394432 -5.15883183 6.06394432 -1.0625 2.375 C-0.711875 1.59125 -0.36125 0.8075 0 0 Z " fill="#2164A1" transform="translate(306,289)"/>
<path d="M0 0 C0.66 0.66 1.32 1.32 2 2 C0.91332031 1.96519531 0.91332031 1.96519531 -0.1953125 1.9296875 C-5.54578244 1.82981206 -9.99446082 1.83544252 -15 4 C-11.45288552 -1.40512683 -5.83750673 -0.796866 0 0 Z " fill="#2A6BA7" transform="translate(302,269)"/>
<path d="M0 0 C2.49361571 1.20381448 4.68143083 2.45428722 7 4 C2.50343896 6.24828052 -1.07872966 6.16682272 -6 6 C-6 5.67 -6 5.34 -6 5 C-3.69 5 -1.38 5 1 5 C0.67 3.35 0.34 1.7 0 0 Z " fill="#F5C42B" transform="translate(318,242)"/>
<path d="M0 0 C0.33 0 0.66 0 1 0 C1.12117187 0.67546875 1.24234375 1.3509375 1.3671875 2.046875 C1.53476563 2.93890625 1.70234375 3.8309375 1.875 4.75 C2.03742188 5.63171875 2.19984375 6.5134375 2.3671875 7.421875 C2.96796264 9.86947744 3.77997117 11.80599857 5 14 C4.34 14 3.68 14 3 14 C3 13.34 3 12.68 3 12 C2.01 12 1.02 12 0 12 C-0.92844389 7.66726186 -0.92844389 4.33273814 0 0 Z " fill="#287CC0" transform="translate(235,333)"/>
<path d="M0 0 C0.33 1.32 0.66 2.64 1 4 C-3.64849515 6.3992233 -7.91086074 6.19957409 -13 6 C-13 5.67 -13 5.34 -13 5 C-11.96939453 4.83564453 -11.96939453 4.83564453 -10.91796875 4.66796875 C-10.01691406 4.50941406 -9.11585938 4.35085938 -8.1875 4.1875 C-6.84751953 3.96126953 -6.84751953 3.96126953 -5.48046875 3.73046875 C-2.81678744 2.94604607 -1.74309678 2.11372201 0 0 Z " fill="#C5E3F7" transform="translate(354,292)"/>
<path d="M0 0 C0 3 0 3 -1.9375 5.75 C-5.32044563 8.23542944 -5.86860297 8.26660802 -9.8125 7.8125 C-11.21318736 7.56800808 -12.61135566 7.30556226 -14 7 C-14 6.67 -14 6.34 -14 6 C-13.32453125 5.90203125 -12.6490625 5.8040625 -11.953125 5.703125 C-5.04032595 4.62920914 -5.04032595 4.62920914 0 0 Z " fill="#BCDAF1" transform="translate(308,291)"/>
<path d="M0 0 C0.66 0 1.32 0 2 0 C2 2.97 2 5.94 2 9 C0.68 8.67 -0.64 8.34 -2 8 C-1.47731534 5.23723823 -0.89130413 2.6739124 0 0 Z " fill="#1668AE" transform="translate(168,279)"/>
<path d="M0 0 C0.66 0 1.32 0 2 0 C1.38479725 3.99881788 -0.60268669 6.80358226 -3 10 C-3.66 10 -4.32 10 -5 10 C-3.66749209 6.4124787 -2.169283 3.1635377 0 0 Z " fill="#5E9BC8" transform="translate(127,158)"/>
<path d="M0 0 C0.66 0 1.32 0 2 0 C1.87431641 0.99580078 1.87431641 0.99580078 1.74609375 2.01171875 C0.94574958 8.54720848 0.94574958 8.54720848 2 15 C1.34 15 0.68 15 0 15 C-0.91740621 11.87645029 -1.13460306 9.06313562 -1.125 5.8125 C-1.12757813 4.93207031 -1.13015625 4.05164063 -1.1328125 3.14453125 C-1 1 -1 1 0 0 Z " fill="#D8EFFC" transform="translate(282,276)"/>
<path d="M0 0 C3.51005335 1.6380249 6.45543849 3.03134491 9 6 C8.67 6.99 8.34 7.98 8 9 C7.34 9 6.68 9 6 9 C5.67 7.35 5.34 5.7 5 4 C4.01 4 3.02 4 2 4 C2 3.34 2 2.68 2 2 C1.34 2 0.68 2 0 2 C0 1.34 0 0.68 0 0 Z " fill="#2F6FA7" transform="translate(254,269)"/>
<path d="M0 0 C0 0.99 0 1.98 0 3 C-1 4 -1 4 -3.06640625 4.09765625 C-3.89011719 4.08605469 -4.71382812 4.07445312 -5.5625 4.0625 C-6.38878906 4.05347656 -7.21507812 4.04445313 -8.06640625 4.03515625 C-8.70449219 4.02355469 -9.34257812 4.01195312 -10 4 C-10 3.34 -10 2.68 -10 2 C-6.7 1.34 -3.4 0.68 0 0 Z " fill="#C5E1F4" transform="translate(163,295)"/>
<path d="M0 0 C2.75 -0.3125 2.75 -0.3125 6 0 C8.4375 2.25 8.4375 2.25 10 5 C9.75 7.3125 9.75 7.3125 9 9 C8.443125 7.8553125 8.443125 7.8553125 7.875 6.6875 C5.6369085 3.47956885 3.55788567 2.5022184 0 1 C0 0.67 0 0.34 0 0 Z " fill="#D5F0FA" transform="translate(254,219)"/>
<path d="M0 0 C0.99 0.33 1.98 0.66 3 1 C0.78631706 3.21368294 -0.93016625 4.86552921 -4.11328125 5.265625 C-6.07746787 5.25166986 -8.0402625 5.13286356 -10 5 C-10 4.67 -10 4.34 -10 4 C-9.36191406 3.79503906 -8.72382813 3.59007812 -8.06640625 3.37890625 C-7.24011719 3.10949219 -6.41382813 2.84007812 -5.5625 2.5625 C-4.73878906 2.29566406 -3.91507812 2.02882812 -3.06640625 1.75390625 C-1.03780412 1.17844506 -1.03780412 1.17844506 0 0 Z " fill="#D7F4FD" transform="translate(325,175)"/>
<path d="M0 0 C0.556875 0.78375 1.11375 1.5675 1.6875 2.375 C4.07668565 5.08704858 5.60073413 5.96133543 9 7 C9 7.33 9 7.66 9 8 C6.69 7.67 4.38 7.34 2 7 C2 6.34 2 5.68 2 5 C1.34 5 0.68 5 0 5 C0 3.35 0 1.7 0 0 Z " fill="#D1E7F6" transform="translate(143,289)"/>
<path d="M0 0 C0.66 0 1.32 0 2 0 C2.28571429 7.42857143 2.28571429 7.42857143 0 11 C-0.66 11 -1.32 11 -2 11 C-1.34 7.37 -0.68 3.74 0 0 Z " fill="#D7E9FA" transform="translate(311,280)"/>
<path d="M0 0 C2.97 0.495 2.97 0.495 6 1 C6.66 2.98 7.32 4.96 8 7 C6.66144944 6.21718695 5.32926356 5.42348123 4 4.625 C3.2575 4.18414062 2.515 3.74328125 1.75 3.2890625 C1.1725 2.86367188 0.595 2.43828125 0 2 C0 1.34 0 0.68 0 0 Z " fill="#D9EEFA" transform="translate(161,268)"/>
<path d="M0 0 C0.66 0 1.32 0 2 0 C2 0.66 2 1.32 2 2 C2.99 2.33 3.98 2.66 5 3 C4.67 3.99 4.34 4.98 4 6 C4.99 6.33 5.98 6.66 7 7 C6.34 7.66 5.68 8.32 5 9 C1.9083091 6.47043472 1.09068668 3.77545388 0 0 Z " fill="#2E72AF" transform="translate(189,286)"/>
<path d="M0 0 C0.99 0.99 1.98 1.98 3 3 C1.71937515 4.7074998 0.38232443 6.37373596 -1 8 C-1.66 8 -2.32 8 -3 8 C-2.67 6.35 -2.34 4.7 -2 3 C-1.34 3 -0.68 3 0 3 C0 2.01 0 1.02 0 0 Z " fill="#3989C1" transform="translate(361,350)"/>
<path d="M0 0 C0 0.99 0 1.98 0 3 C-4.1205746 4.99785435 -7.45194365 5.17835515 -12 5 C-12 4.67 -12 4.34 -12 4 C-10.7625 3.71125 -9.525 3.4225 -8.25 3.125 C-5.27551258 2.38665206 -2.666144 1.55525067 0 0 Z " fill="#DFF4FE" transform="translate(259,294)"/>
<path d="M0 0 C0.99 0.33 1.98 0.66 3 1 C2.34 2.32 1.68 3.64 1 5 C-0.65 5 -2.3 5 -4 5 C-4 4.34 -4 3.68 -4 3 C-2.1875 1.3125 -2.1875 1.3125 0 0 Z " fill="#559DD4" transform="translate(134,151)"/>
<path d="M0 0 C0.66 0.33 1.32 0.66 2 1 C1.45773019 4.79588866 -0.20127563 6.47211993 -3 9 C-3 5.30581799 -1.71820705 3.22163822 0 0 Z " fill="#D9EDFA" transform="translate(216,287)"/>
<path d="M0 0 C2.20319677 4.40639354 3.10924981 6.97450871 3 12 C0.13700494 9.13700494 0.00578775 7.34147716 -0.0625 3.3125 C-0.041875 2.219375 -0.02125 1.12625 0 0 Z " fill="#7EAFDA" transform="translate(378,168)"/>
<path d="M0 0 C0.66 0.33 1.32 0.66 2 1 C1.01 2.485 1.01 2.485 0 4 C-0.45394552 6.27912938 -0.45394552 6.27912938 -0.625 8.6875 C-0.69976562 9.49574219 -0.77453125 10.30398438 -0.8515625 11.13671875 C-0.90054687 11.75160156 -0.94953125 12.36648438 -1 13 C-1.33 13 -1.66 13 -2 13 C-2.05391993 11.20866022 -2.09275571 9.41686101 -2.125 7.625 C-2.14820313 6.62726563 -2.17140625 5.62953125 -2.1953125 4.6015625 C-2 2 -2 2 0 0 Z " fill="#D7F1FC" transform="translate(330,274)"/>
<path d="M0 0 C-1.98 2.97 -1.98 2.97 -4 6 C-6 2.25 -6 2.25 -6 0 C-3 -1 -3 -1 0 0 Z " fill="#DBF0FB" transform="translate(194,272)"/>
<path d="M0 0 C0.80824219 0.11085938 1.61648437 0.22171875 2.44921875 0.3359375 C3.37154297 0.47902344 3.37154297 0.47902344 4.3125 0.625 C4.3125 0.955 4.3125 1.285 4.3125 1.625 C0.3525 2.285 -3.6075 2.945 -7.6875 3.625 C-7.6875 2.965 -7.6875 2.305 -7.6875 1.625 C-4.33422361 -0.61051759 -3.78006343 -0.54783528 0 0 Z " fill="#B7D4F1" transform="translate(201.6875,267.375)"/>
</svg>
